<svg xmlns="http://www.w3.org/2000/svg" viewBox="0 0 800 400">
<rect width="800" height="400" fill="#0d1117"/>
<rect x="0" y="0" width="260" height="400" fill="#121a24" opacity="0.8"/>
<text x="130" y="380" text-anchor="middle" font-family="sans-serif" font-size="14" fill="#4a6a7a">World A</text>
<rect x="540" y="0" width="260" height="400" fill="#1a1225" opacity="0.8"/>
<text x="670" y="380" text-anchor="middle" font-family="sans-serif" font-size="14" fill="#6a4a7a">World B</text>
<ellipse cx="400" cy="200" rx="90" ry="160" fill="none" stroke="#5b8dd9" stroke-width="3" opacity="0.7"/>
<ellipse cx="400" cy="200" rx="80" ry="148" fill="none" stroke="#7da8e8" stroke-width="2" opacity="0.5"/>
<ellipse cx="400" cy="200" rx="70" ry="136" fill="none" stroke="#a0c4f0" stroke-width="1.5" opacity="0.4"/>
<ellipse cx="400" cy="200" rx="60" ry="120" fill="#1a2744" opacity="0.6"/>
<circle cx="355" cy="120" r="2" fill="#c8ddf5" opacity="0.8"/>
<circle cx="420" cy="90" r="1.5" fill="#a0c4f0" opacity="0.6"/>
<circle cx="380" cy="280" r="2.5" fill="#7da8e8" opacity="0.5"/>
<circle cx="430" cy="150" r="1" fill="#dde8f7" opacity="0.9"/>
<circle cx="370" cy="250" r="1.8" fill="#a0c4f0" opacity="0.7"/>
<circle cx="410" cy="300" r="1.2" fill="#c8ddf5" opacity="0.6"/>
<g transform="translate(290, 100)">
<path d="M30 280 L30 120 C30 100, 35 80, 40 70 L40 60 C40 50, 50 40, 55 38 L55 35 C55 30, 52 25, 55 20 C58 15, 62 15, 65 20 C68 25, 65 30, 65 35 L65 38 C70 40, 80 50, 80 60 L80 70 C85 80, 90 100, 90 120 L90 280" fill="none" stroke="#3a6aaa" stroke-width="2.5" stroke-linecap="round"/>
<path d="M30 280 L0 290 L40 285 L80 290 L120 280 L90 280" fill="none" stroke="#3a6aaa" stroke-width="2" stroke-linecap="round"/>
<path d="M30 120 L15 180 L30 170" fill="none" stroke="#3a6aaa" stroke-width="2" stroke-linecap="round"/>
<path d="M90 120 L105 160 L90 155" fill="none" stroke="#3a6aaa" stroke-width="2" stroke-linecap="round"/>
<circle cx="52" cy="25" r="8" fill="none" stroke="#3a6aaa" stroke-width="1.5"/>
<circle cx="49" cy="23" r="1.5" fill="#7da8e8"/>
<circle cx="56" cy="23" r="1.5" fill="#7da8e8"/>
<line x1="105" y1="150" x2="140" y2="130" stroke="#5b8dd9" stroke-width="1.5" stroke-linecap="round"/>
<line x1="140" y1="130" x2="155" y2="110" stroke="#5b8dd9" stroke-width="1" opacity="0.7" stroke-linecap="round"/>
<circle cx="155" cy="108" r="3" fill="#7da8e8" opacity="0.6"/>
<circle cx="145" cy="120" r="2" fill="#a0c4f0" opacity="0.5"/>
<circle cx="135" cy="135" r="2.5" fill="#5b8dd9" opacity="0.4"/>
<circle cx="125" cy="145" r="1.5" fill="#c8ddf5" opacity="0.7"/>
<circle cx="160" cy="100" r="1.5" fill="#dde8f7" opacity="0.5"/>
</g>
<circle cx="180" cy="80" r="1.5" fill="#4a6a7a" opacity="0.4"/>
<circle cx="150" cy="150" r="1" fill="#4a6a7a" opacity="0.3"/>
<circle cx="200" cy="250" r="2" fill="#4a6a7a" opacity="0.3"/>
<circle cx="120" cy="300" r="1.5" fill="#4a6a7a" opacity="0.2"/>
<circle cx="620" cy="100" r="2" fill="#6a4a7a" opacity="0.4"/>
<circle cx="680" cy="180" r="1.5" fill="#6a4a7a" opacity="0.3"/>
<circle cx="600" cy="280" r="1" fill="#6a4a7a" opacity="0.3"/>
<circle cx="720" cy="320" r="2" fill="#6a4a7a" opacity="0.2"/>
<circle cx="650" cy="60" r="1" fill="#8a6a9a" opacity="0.4"/>
<text x="400" y="30" text-anchor="middle" font-family="sans-serif" font-size="11" fill="#5b8dd9" opacity="0.6">MQ &#xd7; 10</text>
<path d="M300 25 L350 25" fill="none" stroke="#5b8dd9" stroke-width="0.8" opacity="0.4" marker-end="url(#arr)"/>
<defs><marker id="arr" viewBox="0 0 10 10" refX="8" refY="5" markerWidth="5" markerHeight="5" orient="auto"><path d="M2 2L8 5L2 8" fill="none" stroke="#5b8dd9" stroke-width="1.5" stroke-linecap="round"/></marker></defs>
</svg>
